<svg width="149" height="24" viewBox="0 0 149 24" fill="none" xmlns="http://www.w3.org/2000/svg">
<path d="M7.44141 19H10.5234L11.3789 14.6875H14.1094L14.6602 11.7227H11.9648L12.4688 9.13281H15.1992L15.75 6.19141H13.0664L13.875 2.07812H10.793L9.97266 6.19141H7.34766L8.14453 2.07812H5.07422L4.25391 6.19141H1.64062L1.07812 9.13281H3.67969L3.16406 11.7227H0.5625L0 14.6875H2.57812L1.73438 19H4.80469L5.66016 14.6875H8.29688L7.44141 19ZM5.92969 12.0391L6.57422 8.82812H9.70312L9.04688 12.0391H5.92969Z" fill="url(#paint0_linear)"/>
<path d="M16.4766 14.0195C16.5352 17.3477 19.3242 19.293 23.543 19.293C28.0078 19.293 30.668 17.1367 30.668 13.7383C30.668 11.0781 29.0273 9.61328 25.418 8.92188L23.6836 8.59375C21.8438 8.24219 21.0703 7.75 21.0703 6.85938C21.0703 5.86328 21.9961 5.16016 23.5547 5.16016C25.1133 5.16016 26.2617 5.88672 26.332 7.10547H30.3281C30.2812 3.88281 27.7734 1.79688 23.5195 1.79688C19.6289 1.79688 16.8047 3.89453 16.8047 7.15234C16.8047 9.73047 18.5508 11.3828 21.9258 12.0156L23.6602 12.3438C25.6641 12.7305 26.3906 13.2109 26.3906 14.1484C26.3906 15.1797 25.3008 15.9297 23.625 15.9297C21.9727 15.9297 20.6719 15.2266 20.4727 14.0195H16.4766ZM34.4648 4.78516C35.6133 4.78516 36.5156 3.87109 36.5156 2.78125C36.5156 1.67969 35.6133 0.765625 34.4648 0.765625C33.3281 0.765625 32.4258 1.67969 32.4258 2.78125C32.4258 3.87109 33.3281 4.78516 34.4648 4.78516ZM32.4141 19H36.5625V6.23828H32.4141V19ZM44.7188 23.8047C48.6914 23.8047 51.3867 21.9062 51.3867 18.8594V6.23828H47.2617V8.5H47.1797C46.6055 7.05859 45.1875 6.05078 43.3359 6.05078C40.1367 6.05078 38.2031 8.5 38.2031 12.5781C38.2031 16.5742 40.2305 18.8945 43.2773 18.8945C45.1523 18.8945 46.6523 17.9688 47.1562 16.6211H47.2383V18.9648C47.2383 20.2305 46.4062 21.0859 44.8125 21.0859C43.6289 21.0859 42.7617 20.5703 42.5625 19.832H38.543C38.7773 22.1523 41.0859 23.8047 44.7188 23.8047ZM44.8477 15.8242C43.3477 15.8242 42.457 14.6758 42.457 12.6133C42.457 10.5625 43.3594 9.29688 44.8477 9.29688C46.3242 9.29688 47.25 10.5742 47.25 12.6133C47.25 14.6758 46.3359 15.8242 44.8477 15.8242ZM57.2109 19.1875C58.7461 19.1875 60.3047 18.4727 60.9961 17.1836H61.0781V19H65.1211V10.2461C65.1211 7.67969 62.8594 5.93359 59.4492 5.93359C55.8867 5.93359 53.6602 7.65625 53.543 10.2695H57.2812C57.3984 9.48438 58.1133 8.89844 59.2383 8.89844C60.3281 8.89844 61.0547 9.46094 61.0547 10.4805V11.207L58.0664 11.3828C54.7617 11.582 52.9219 12.918 52.9219 15.3086C52.9219 17.6172 54.8438 19.1875 57.2109 19.1875ZM58.6875 16.3281C57.7031 16.3281 57.0352 15.8359 57.0352 15.0273C57.0352 14.2773 57.6445 13.7734 58.7344 13.6914L61.0547 13.5391V14.418C61.0547 15.5547 59.9531 16.3281 58.6875 16.3281ZM75.1406 19.293C79.5 19.293 82.6172 16.6445 82.8164 12.625H78.6797C78.4102 14.6055 77.0391 15.8477 75.1523 15.8477C72.7852 15.8477 71.3086 13.8438 71.3086 10.5273C71.3086 7.24609 72.7969 5.24219 75.1406 5.24219C77.0273 5.24219 78.4453 6.55469 78.6562 8.54688H82.793C82.6641 4.55078 79.418 1.79688 75.1406 1.79688C70.1016 1.79688 66.9258 5.01953 66.9258 10.5391C66.9258 16.0703 70.0781 19.293 75.1406 19.293ZM90.6914 19.3047C94.7109 19.3047 97.2188 16.8789 97.2188 12.6133C97.2188 8.42969 94.6758 5.93359 90.6914 5.93359C86.7305 5.93359 84.1641 8.44141 84.1641 12.6133C84.1641 16.8672 86.6719 19.3047 90.6914 19.3047ZM90.6914 16.2578C89.2617 16.2578 88.3828 14.957 88.3828 12.625C88.3828 10.3281 89.2852 8.98047 90.6914 8.98047C92.1094 8.98047 93.0117 10.3281 93.0117 12.625C93.0117 14.957 92.1094 16.2578 90.6914 16.2578ZM98.8242 19H102.984V12.2852C102.984 10.5039 103.934 9.51953 105.68 9.51953C106.172 9.51953 106.652 9.61328 107.004 9.75391V6.21484C106.723 6.10938 106.371 6.05078 105.949 6.05078C104.449 6.05078 103.418 6.92969 102.949 8.65234H102.867V6.23828H98.8242V19ZM114.082 19.3047C118.102 19.3047 120.609 16.8789 120.609 12.6133C120.609 8.42969 118.066 5.93359 114.082 5.93359C110.121 5.93359 107.555 8.44141 107.555 12.6133C107.555 16.8672 110.062 19.3047 114.082 19.3047ZM114.082 16.2578C112.652 16.2578 111.773 14.957 111.773 12.625C111.773 10.3281 112.676 8.98047 114.082 8.98047C115.5 8.98047 116.402 10.3281 116.402 12.625C116.402 14.957 115.5 16.2578 114.082 16.2578ZM122.215 19H126.375V11.7812C126.375 10.375 127.195 9.37891 128.52 9.37891C129.879 9.37891 130.57 10.2461 130.57 11.6992V19H134.719V10.8086C134.719 7.77344 133.137 5.99219 130.289 5.99219C128.332 5.99219 126.996 6.94141 126.34 8.64062H126.258V6.23828H122.215V19ZM140.484 19.1875C142.02 19.1875 143.578 18.4727 144.27 17.1836H144.352V19H148.395V10.2461C148.395 7.67969 146.133 5.93359 142.723 5.93359C139.16 5.93359 136.934 7.65625 136.816 10.2695H140.555C140.672 9.48438 141.387 8.89844 142.512 8.89844C143.602 8.89844 144.328 9.46094 144.328 10.4805V11.207L141.34 11.3828C138.035 11.582 136.195 12.918 136.195 15.3086C136.195 17.6172 138.117 19.1875 140.484 19.1875ZM141.961 16.3281C140.977 16.3281 140.309 15.8359 140.309 15.0273C140.309 14.2773 140.918 13.7734 142.008 13.6914L144.328 13.5391V14.418C144.328 15.5547 143.227 16.3281 141.961 16.3281Z" fill="white"/>
<defs>
<linearGradient id="paint0_linear" x1="75" y1="-4" x2="75" y2="25" gradientUnits="userSpaceOnUse">
<stop stop-color="#1EF58E"/>
<stop offset="0.0001" stop-color="#0BFF98"/>
<stop offset="1" stop-color="#1EF58E" stop-opacity="0.05"/>
</linearGradient>
</defs>
</svg>
